<?xml version="1.0" encoding="utf-8"?><!DOCTYPE svg PUBLIC "-//W3C//DTD SVG 1.1//EN" "http://www.w3.org/Graphics/SVG/1.1/DTD/svg11.dtd"><svg xmlns="http://www.w3.org/2000/svg" xmlns:xlink="http://www.w3.org/1999/xlink"><symbol fill="none" viewBox="0 0 10 10" id="accordion--img--minus-pink" xmlns="http://www.w3.org/2000/svg"><path fill="#e09b66" d="M0 6V4h10v2z"/></symbol><symbol fill="none" viewBox="0 0 10 10" id="accordion--img--plus-gray" xmlns="http://www.w3.org/2000/svg"><path fill="#7F7F7F" d="M4 0h2v10H4z"/><path fill="#7F7F7F" d="M0 6V4h10v2z"/></symbol><symbol fill="#686868" viewBox="0 0 60 60" id="tabs--img--design" xmlns="http://www.w3.org/2000/svg"><path d="M59.371 37.07a1.007 1.007 0 00-1.1.24l-4.27 4.489V15.133h.004l4.075-4.4a1 1 0 00-.055-1.413l-.001-.001-1.467-1.365 2.038-2.2a1 1 0 00-.056-1.413l-4.4-4.075a1 1 0 00-1.413.055l-7.11 7.677H11a5.006 5.006 0 00-5-5H5a5.006 5.006 0 00-5 5V51a1 1 0 001 1h15.138l-2.1 2.522a1 1 0 00.129 1.408l4.61 3.84a1 1 0 001.41-.13l5.118-6.149c.354-.426.581-.943.656-1.49h18.324l-6.01 6.31A1 1 0 0039 60h20a1 1 0 001-1V37.998a1 1 0 00-.629-.93zm-3.438-26.972L54 12.19v-1.47l1.2-1.3.733.68zM52 9.92v.014l-8.457 9.14-2.937-2.717 10.188-11.01 2.937 2.717-1.719 1.856H52zm-10.378 10.1l-2.3.671.491-2.346 1.81 1.675zm11.89-17.609l2.935 2.716-1.359 1.47-2.936-2.718 1.36-1.468zM5 4.998h1a3 3 0 013 3v38.027A4.949 4.949 0 006 45H5a4.948 4.948 0 00-3 1.026V7.998a3 3 0 013-3zm0 42h1A3 3 0 019 50H2a3 3 0 013-3zm18.769 5.213l-.64.768-3.074-2.559.64-.769a1 1 0 011.407-.128h.001l1.537 1.276a1 1 0 01.13 1.408l-.001.001v.003zm-4.479 5.38l-3.074-2.559 2.56-3.075 3.073 2.56-2.559 3.074zM25.54 50a2.97 2.97 0 00-.621-.734l-1.537-1.279a3 3 0 00-4.225.386L17.8 50H11V10h32.766l-5.307 5.734a.973.973 0 00-.21.377c-.009.03-.024.06-.031.093l-1.194 5.707a1 1 0 001.259 1.165l5.6-1.632c.026-.009.048-.024.073-.032.025-.01.051-.022.078-.036a.99.99 0 00.3-.21L52 12.878v31.02l-5.81 6.1H25.54zM58 58H41.333L58 40.5v17.5z"/><path d="M47.076 55.382A1 1 0 0048 56h7a1 1 0 001-1v-7a1 1 0 00-1.707-.707l-7 7a1 1 0 00-.217 1.09zM54 50.412V54h-3.586L54 50.413zM44 37.999h-7v-11a1.012 1.012 0 00-.294-.708l-6-6a1 1 0 00-1.414 0l-6 6a1.013 1.013 0 00-.292.708v11h-7a1 1 0 100 2h28a1 1 0 100-2zM30 22.412l3.586 3.586h-7.172L30 22.412zM25 28h10v10H25v-10zM29 15.998h2v2h-2v-2zM29 41.999h2v2h-2v-2z"/></symbol><symbol fill="#686868" viewBox="0 0 60 60" id="tabs--img--gardening" xmlns="http://www.w3.org/2000/svg"><path d="M25.976 50c-.256-5-3.015-9.535-7.338-12.061l-6.908-7.675A3.735 3.735 0 008 29.118V16a4 4 0 00-8 0v18.927A9.029 9.029 0 001.133 39.3L10 55.259V59a1 1 0 001 1h14a1 1 0 001-1v-9h-.024zM24 58H12v-3a1 1 0 00-.126-.486L2.881 38.327a7.027 7.027 0 01-.881-3.4V16a2 2 0 114 0v14.353a3.8 3.8 0 00.067 5.033L14.26 44.4l1.48-1.346-8.193-9.013a1.818 1.818 0 112.697-2.439l7.013 7.792c.09.09.19.167.3.23A12.813 12.813 0 0124 50.725V58zM56 12a4 4 0 00-4 4v13.118a3.875 3.875 0 00-.992-.118 3.784 3.784 0 00-2.738 1.263l-6.906 7.673A14.817 14.817 0 0034.024 50H34v9a1 1 0 001 1h14a1 1 0 001-1v-3.743l8.757-15.872A9.007 9.007 0 0060 34.822V16a4 4 0 00-4-4zm2 22.822a7.034 7.034 0 01-.98 3.573l-8.9 16.122A1 1 0 0048 55v3H36v-7.275A12.835 12.835 0 0142.494 39.6a1 1 0 00.249-.2l7.013-7.8a1.82 1.82 0 112.7 2.439l-8.196 9.013 1.48 1.348 8.193-9.012A3.8 3.8 0 0054 30.353V16a2 2 0 114 0v18.822z"/><path d="M42 25h-2a10.99 10.99 0 00-9 4.7V23h1c6.072-.007 10.993-4.928 11-11a1 1 0 00-1-1h-2a10.99 10.99 0 00-9 4.7V9h1a8.009 8.009 0 008-8 1 1 0 00-1-1h-2a8 8 0 00-7 4.136A8 8 0 0023 0h-2a1 1 0 00-1 1 8.009 8.009 0 008 8h1v6.7a10.99 10.99 0 00-9-4.7h-2a1 1 0 00-1 1c.007 6.072 4.928 10.993 11 11h1v6.7a10.99 10.99 0 00-9-4.7h-2a1 1 0 00-1 1c.007 6.072 4.928 10.993 11 11h1v8h2v-8h1c6.072-.007 10.993-4.928 11-11a1 1 0 00-1-1zm-2-12h.945A9.013 9.013 0 0132 21h-.945A9.013 9.013 0 0140 13zM37 2h.917A6.01 6.01 0 0132 7h-.917A6.01 6.01 0 0137 2zm-9 5a6.01 6.01 0 01-5.917-5H23a6.01 6.01 0 015.917 5H28zm0 14a9.013 9.013 0 01-8.945-8H20a9.013 9.013 0 018.945 8H28zm0 14a9.013 9.013 0 01-8.945-8H20a9.013 9.013 0 018.945 8H28zm4 0h-.945A9.013 9.013 0 0140 27h.945A9.013 9.013 0 0132 35z"/></symbol><symbol fill="#686868" viewBox="0 0 60 60" id="tabs--img--green-roofs" xmlns="http://www.w3.org/2000/svg"><path d="M53.694 15.937c.62 0 1.249-.144 1.835-.449 1.66-.86 3.927-5.02 4.365-5.845.303-.572-.077-1.29-.722-1.37-.932-.114-5.666-.64-7.326.221a3.928 3.928 0 00-1.952 2.317c-.31.98-.225 2.019.235 2.936l-2.563 2.18v-5.149c1.737-.423 3.029-1.98 3.029-3.832 0-1.86-2.663-5.78-3.197-6.547a.96.96 0 00-1.557 0c-.534.767-3.197 4.688-3.197 6.547 0 1.852 1.293 3.41 3.03 3.832v6.253h-4.102a.943.943 0 00-.947.94v4.748l-9.206-7.03a3.24 3.24 0 00-3.925 0L10.881 28.375a.935.935 0 00-.173 1.317.951.951 0 001.327.172L28.65 17.178a1.334 1.334 0 011.616 0l10.73 8.194c.61.466 1.523.018 1.523-.745V18.91h8.203v13.426c0 .292.137.567.37.745l5.423 4.141c.58.443.688 1.27.243 1.845a1.344 1.344 0 01-1.858.24L30.034 20.321a.952.952 0 00-1.154 0L4.015 39.307a1.344 1.344 0 01-1.859-.24 1.321 1.321 0 01.243-1.845l6.175-4.715a.935.935 0 00.173-1.318.951.951 0 00-1.327-.172l-6.175 4.716c-1.39 1.06-1.66 3.098-.589 4.48a3.238 3.238 0 004.513.584L29.457 22.25l24.287 18.546c1.393 1.063 3.443.796 4.513-.585a3.183 3.183 0 00-.589-4.48l-5.054-3.859V17.97a.943.943 0 00-.946-.94h-2.49l2.174-1.849a4.02 4.02 0 002.342.756zm-1.993-4.564c.166-.527.53-.958 1.022-1.214.362-.187 1.256-.268 2.354-.268.757 0 1.611.039 2.455.106-1.043 1.777-2.268 3.508-2.88 3.826a2.092 2.092 0 01-1.783.067l1.434-1.22a.935.935 0 00.103-1.325.951.951 0 00-1.335-.102l-1.413 1.203c-.08-.352-.069-.72.043-1.073zM46.62 6.006a.943.943 0 00-.947.94v1.839a2.066 2.066 0 01-1.135-1.84c0-.684.978-2.563 2.082-4.305 1.104 1.741 2.082 3.62 2.082 4.306 0 .801-.462 1.496-1.136 1.839v-1.84a.943.943 0 00-.946-.939z"/><path d="M29.457 32.064c-7.76 0-14.072 6.266-14.072 13.968S21.698 60 29.457 60c7.758 0 14.071-6.266 14.071-13.968s-6.313-13.968-14.071-13.968zm0 1.879c2.76 0 5.308.916 7.353 2.459l-3.984 3.955a.936.936 0 00-.278.664v2.89l-.36 1.433-.875-1.737a.942.942 0 00-.322-.361l-2.759-1.826-.906-2.7a.943.943 0 00-.6-.595l-2.696-.892-.917-1.517a12.171 12.171 0 016.343-1.773zM17.277 46.032c0-.547.038-1.084.109-1.612l.642-.255 2.593 3.433c.14.185.344.312.572.357l4.767.947 2.413 2.395-.737 2.192-3.987 3.167c-3.793-2.05-6.372-6.044-6.372-10.624zM29.457 58.12c-1.343 0-2.635-.218-3.844-.618l3.425-2.72a.94.94 0 00.307-.437l1.01-3.006a.935.935 0 00-.23-.962l-3.028-3.006a.947.947 0 00-.484-.257l-4.693-.932-2.812-3.721a.95.95 0 00-1.109-.31l-.09.037a12.126 12.126 0 013.666-5.365l1.012 1.674a.946.946 0 00.512.408l2.58.853.86 2.561a.939.939 0 00.373.485l2.82 1.866 1.907 3.785a.957.957 0 00.967.512.952.952 0 00.797-.704l1.01-4.009a.941.941 0 00.028-.227V41.41l3.785-3.757a12.078 12.078 0 012.895 4.904l-2.764.55a.943.943 0 00-.742.736l-1.01 5.011a.935.935 0 00.14.706l2.02 3.006a.8.8 0 00.03.043l.454.6a12.196 12.196 0 01-9.792 4.912zm9.081-9.28l.81-4.015 2.175-.432c.073.536.112 1.083.112 1.638 0 1.964-.475 3.82-1.316 5.461l-1.78-2.652z"/></symbol><symbol fill="#686868" viewBox="0 0 60 60" id="tabs--img--landing" xmlns="http://www.w3.org/2000/svg"><path d="M54.456 49.157a5.47 5.47 0 00-7.873-2.314 5.497 5.497 0 00-3.93-1.841 5.992 5.992 0 00-8.078-3.49c-.034-.055-.077-.103-.113-.158A19.136 19.136 0 0038 30.36v-.58A2.768 2.768 0 0035.25 27H33V6.188A5.999 5.999 0 0036 1a1 1 0 00-1-1H25a1 1 0 00-1 1 5.999 5.999 0 003 5.188V27h-2.25A2.768 2.768 0 0022 29.78v.58c.005 2.46.493 4.894 1.437 7.165a9.44 9.44 0 00-5.359 4.584 5.885 5.885 0 00-6.276 2.903 4.428 4.428 0 00-4.53 2.992A7.51 7.51 0 000 55.5V59a1 1 0 001 1h58a1 1 0 001-1v-3a7.005 7.005 0 00-5.544-6.843zM26.126 2h7.747a4 4 0 01-7.746 0zM29 26.997V6.91A6 6 0 0030 7c.335-.002.67-.032 1-.09v20.087h-2zM31 29v3a1 1 0 11-2 0v-3h2zm-7 .78a.757.757 0 01.75-.78H27v3a3 3 0 006 0v-3h2.25a.757.757 0 01.75.78v.58a17.091 17.091 0 01-2.852 9.382 9.216 9.216 0 00-7.737-2.667l-.07-.154A16.78 16.78 0 0124 30.36v-.58zM58 58H2v-2.5A5.506 5.506 0 017.5 50c.157 0 .311.012.464.024a1.001 1.001 0 001.075-.861 2.438 2.438 0 013.083-2.072 1 1 0 001.176-.592A3.982 3.982 0 0117 44c.444.006.884.087 1.302.24a1 1 0 001.254-.568 7.492 7.492 0 0113.72-.37 1 1 0 001.47.397 3.99 3.99 0 016.177 2.548c.1.52.59.873 1.116.804l.11-.016A2.53 2.53 0 0142.5 47c1.25-.001 2.405.674 3.017 1.764a1 1 0 001.56.22 3.473 3.473 0 015.717 1.39 1 1 0 00.824.669A5 5 0 0158 56v2z"/><path d="M29.433 43.994a1 1 0 00.524-1.772 5.501 5.501 0 00-8.644 2.445 1 1 0 101.886.667A3.507 3.507 0 0126.5 43a3.46 3.46 0 012.2.777 1 1 0 00.733.217zM42 49c-.527 0-1.044.138-1.5.401a1 1 0 101 1.733A1 1 0 0143 52a1 1 0 102 0 3.003 3.003 0 00-3-3zM53 53c-.527 0-1.044.139-1.5.402a1 1 0 101 1.731A1 1 0 0154 56a1 1 0 102 0 3.003 3.003 0 00-3-3zM14.198 49.07a3.502 3.502 0 00-4.128 4.128 1 1 0 101.96-.396 1.502 1.502 0 011.772-1.772 1 1 0 10.396-1.96zM29.5 48c-.624 0-1.244.105-1.833.313a1 1 0 00.665 1.886 3.504 3.504 0 014.469 4.468 1 1 0 101.886.666A5.503 5.503 0 0029.5 48z"/></symbol><symbol fill="#686868" viewBox="0 0 83 60" id="tabs--img--landscaping" xmlns="http://www.w3.org/2000/svg"><path d="M81.656 57.313H72.96V45.55c3.264-.598 5.737-3.327 5.737-6.594 0-1.653-.662-5.77-1.731-9.538-1.534-5.407-3.234-7.925-5.35-7.925-2.117 0-3.816 2.518-5.35 7.924-1.07 3.77-1.731 7.886-1.731 9.54 0 3.267 2.473 5.995 5.736 6.593v11.764h-8.784V23.958a4.216 4.216 0 002.868-3.988V14.24c0-.742-.601-1.344-1.344-1.344h-1.524v-1.611h2.958a1.344 1.344 0 100-2.687h-8.605a1.344 1.344 0 100 2.687H58.8v1.611h-1.524c-.742 0-1.344.602-1.344 1.344v5.731a4.216 4.216 0 002.868 3.988v33.355h-4.7l-.914-4.477h1.222a1.344 1.344 0 100-2.687h-2.958v-3.044h1.524a1.344 1.344 0 100-2.687h-1.524v-1.612h1.524a1.344 1.344 0 100-2.687H27.159a1.344 1.344 0 100 2.687h1.524v1.612h-1.524a1.344 1.344 0 100 2.687h1.524v3.044h-2.958a1.344 1.344 0 100 2.687h1.222l-.914 4.477H15.596V44.157c5.645-.667 10.039-5.475 10.039-11.291 0-10.091-9.749-31.195-10.164-32.088a1.344 1.344 0 00-2.439 0c-.415.893-10.164 21.997-10.164 32.088 0 5.816 4.394 10.624 10.04 11.29v13.157H1.343a1.344 1.344 0 100 2.687h80.312a1.344 1.344 0 100-2.687zM67.225 38.955c0-1.198.526-4.782 1.515-8.396 1.438-5.258 2.646-6.223 2.877-6.363.23.14 1.438 1.105 2.876 6.363.99 3.614 1.516 7.198 1.516 8.396 0 1.792-1.282 3.314-3.048 3.836V40.03a1.344 1.344 0 00-2.689 0v2.761c-1.766-.522-3.047-2.044-3.047-3.836zM58.62 15.582h3.047v4.388a1.525 1.525 0 01-3.047 0v-4.388zM5.557 32.866c0-7.456 6.045-22.143 8.695-28.223 2.65 6.08 8.694 20.767 8.694 28.223 0 4.333-3.192 7.934-7.35 8.582v-8.026l3.909-3.905a1.342 1.342 0 000-1.9 1.345 1.345 0 00-1.902 0l-2.007 2.006v-2.489a1.344 1.344 0 00-2.689 0v6.787L10.9 31.916a1.345 1.345 0 00-1.901 0 1.342 1.342 0 000 1.9l3.908 3.905v3.727c-4.158-.648-7.35-4.25-7.35-8.582zm25.815 9.94H48.76v1.612H31.372v-1.612zm0 4.299H48.76v3.044H31.372v-3.044zm-1.681 5.73h20.75l.913 4.478H28.778l.913-4.477z"/></symbol><symbol viewBox="0 0 120 40" id="tabs--img--vicons" xmlns="http://www.w3.org/2000/svg"><path fill="#C3C2B9" d="M15 3c-.3-.6-.7-1-1.3-1H6.2c-.6 0-.9.4-1.2 1l-4 7v7c0 .6.4 1 1 1h16c.6 0 1-.4 1-1v-7l-4-7zM6.7 4h6.5l2.9 5h-3.6c-.3 0-.5.2-.5.5v.4c0 1-.8 2-1.8 2.1-1.2.1-2.2-.8-2.2-2v-.5c0-.3-.2-.5-.5-.5H3.9l2.8-5zm9.8 12h-13c-.3 0-.5-.2-.5-.5V11h3.1c.4 1.7 2 3 3.9 3s3.4-1.3 3.9-3H17v4.5c0 .3-.2.5-.5.5z"/><path fill-rule="evenodd" clip-rule="evenodd" fill="#C3C2B9" d="M37.7 6.5L30.5 14H26V9.5l7.5-7.2c.2-.2.4-.3.7-.3.3 0 .5.1.7.3l2.8 2.8c.4.4.4 1 0 1.4zm-3.5-2.1L28 10.3V12h1.7l5.9-6.2-1.4-1.4zM27 4h-2.5c-.3 0-.5.2-.5.5v11c0 .3.2.5.5.5h11c.3 0 .5-.2.5-.5V13c0-.6.4-1 1-1s1 .4 1 1v4c0 .6-.4 1-1 1H23c-.6 0-1-.4-1-1V3c0-.6.4-1 1-1h4c.6 0 1 .4 1 1s-.4 1-1 1zM58 17h-2c-.5 0-1-.5-1-1 0-.6.4-1 1-1h.5c.3 0 .5-.2.5-.5v-7c0-.3-.2-.5-.5-.5h-3.3l-.6-.6L51.2 5h-2.3l-1.4 1.4-.7.6h-3.3c-.3 0-.5.2-.5.5v7c0 .3.2.5.5.5h.5c.6 0 1 .4 1 1s-.4 1-1 1h-2c-.6 0-1-.4-1-1V6c0-.6.4-1 1-1h4l1.7-1.7c.2-.2.4-.3.7-.3h3.2c.3 0 .5.1.7.3L54 5h4c.6 0 1 .4 1 1v10c0 .6-.4 1-1 1zm-8-9c2.2 0 4 1.8 4 4s-1.8 4-4 4-4-1.8-4-4 1.8-4 4-4zm0 6c1.1 0 2-.9 2-2s-.9-2-2-2-2 .9-2 2 .9 2 2 2zM77.1 9c-.7.7-1.5 1-2.3 1-.8 0-1.6-.3-2.3-.9l-.2-.2C71.8 9.6 71 10 70 10c-.9 0-1.8-.4-2.3-1.1l-.2.2c-.6.6-1.4.9-2.3.9-.8 0-1.6-.3-2.3-.9-1.2-1.2-1.2-3.3 0-4.5L64.5 3c.6-.7 1.4-1 2.3-1h6.4c.8 0 1.6.3 2.2.9L77 4.5c1.3 1.2 1.3 3.3.1 4.5zm-1.5-3.1L74 4.3c-.2-.2-.6-.3-.8-.3H67h-.2c-.2 0-.5 0-.8.3l-1.6 1.6c-.5.5-.5 1.2 0 1.7.2.3.5.4.8.4.3 0 .6-.1.8-.3l.2-.2 1.4-1.4c.1-.1.3-.1.4 0l1.2 1.5c.2.3.5.4.8.4.3 0 .6-.1.8-.4L72 6.1c.1-.1.2-.1.3 0l1.4 1.4.2.2c.2.2.5.3.9.3.3 0 .6-.1.8-.3.5-.6.5-1.3 0-1.8zM65 12c.6 0 1 .4 1 1v2.5c0 .3.2.5.5.5h7c.3 0 .5-.2.5-.5V13c0-.5.4-1 1-1 .5 0 1 .4 1 1v4c0 .5-.4 1-1 1H65c-.5 0-1-.4-1-1v-4c0-.6.4-1 1-1zM93 17h-6c-3.9 0-7-3.1-7-7s3.1-7 7-7h6c3.9 0 7 3.1 7 7s-3.1 7-7 7zm0-12h-6c-2.8 0-5 2.2-5 5s2.2 5 5 5h6c2.8 0 5-2.2 5-5s-2.2-5-5-5zm-6 8c-1.7 0-3-1.3-3-3s1.3-3 3-3 3 1.3 3 3-1.3 3-3 3zM117 8v9c0 .6-.4 1-1 1h-12c-.6 0-1-.4-1-1V8h-2V7c0-.6.4-1 1-1h4V3c0-.6.4-1 1-1h6c.6 0 1 .4 1 1v3h4c.6 0 1 .4 1 1v1h-2zm-5-4h-4v2h4V4zm3 4h-10v8h10V8zm-7.5 2h1c.3 0 .5.2.5.5v3c0 .3-.2.5-.5.5h-1c-.3 0-.5-.2-.5-.5v-3c0-.3.2-.5.5-.5zm4 0h1c.3 0 .5.2.5.5v3c0 .3-.2.5-.5.5h-1c-.3 0-.5-.2-.5-.5v-3c0-.3.2-.5.5-.5z"/><path fill="#F05451" d="M15 23c-.3-.6-.7-1-1.3-1H6.2c-.6 0-.9.4-1.2 1l-4 7v7c0 .6.4 1 1 1h16c.6 0 1-.4 1-1v-7l-4-7zm-8.3 1h6.5l2.9 5h-3.6c-.3 0-.5.2-.5.5v.4c0 1-.8 2-1.8 2.1-1.2.1-2.2-.8-2.2-2v-.5c0-.3-.2-.5-.5-.5H3.9l2.8-5zm9.8 12h-13c-.3 0-.5-.2-.5-.5V31h3.1c.4 1.7 2 3 3.9 3s3.4-1.3 3.9-3H17v4.5c0 .3-.2.5-.5.5z"/><path fill-rule="evenodd" clip-rule="evenodd" fill="#F05451" d="M37.7 26.5L30.5 34H26v-4.5l7.5-7.2c.2-.2.5-.3.7-.3.3 0 .5.1.7.3l2.8 2.8c.4.4.4 1 0 1.4zm-3.5-2.1L28 30.3V32h1.7l5.9-6.2-1.4-1.4zM27 24h-2.5c-.3 0-.5.2-.5.5v11c0 .3.2.5.5.5h11c.3 0 .5-.2.5-.5V33c0-.6.4-1 1-1s1 .4 1 1v4c0 .6-.4 1-1 1H23c-.6 0-1-.4-1-1V23c0-.6.4-1 1-1h4c.6 0 1 .4 1 1s-.4 1-1 1zM58 37h-2c-.5 0-1-.5-1-1 0-.6.4-1 1-1h.5c.3 0 .5-.2.5-.5v-7c0-.3-.2-.5-.5-.5h-3.3l-.6-.6-1.4-1.4h-2.3l-1.4 1.4-.7.6h-3.3c-.3 0-.5.2-.5.5v7c0 .3.2.5.5.5h.5c.6 0 1 .4 1 1s-.4 1-1 1h-2c-.6 0-1-.4-1-1V26c0-.6.4-1 1-1h4l1.7-1.7c.2-.2.4-.3.7-.3h3.2c.3 0 .5.1.7.3L54 25h4c.6 0 1 .4 1 1v10c0 .6-.4 1-1 1zm-8-9c2.2 0 4 1.8 4 4s-1.8 4-4 4-4-1.8-4-4 1.8-4 4-4zm0 6c1.1 0 2-.9 2-2s-.9-2-2-2-2 .9-2 2 .9 2 2 2zM77.1 29c-.7.7-1.5 1-2.3 1-.8 0-1.6-.3-2.3-.9l-.2-.2c-.5.7-1.3 1.1-2.3 1.1-.9 0-1.8-.4-2.3-1.1l-.2.2c-.6.6-1.4.9-2.3.9-.8 0-1.6-.3-2.3-.9-1.2-1.2-1.2-3.3 0-4.5l1.6-1.6c.6-.6 1.4-.9 2.2-.9H73.2c.8 0 1.6.3 2.2.9l1.6 1.6c1.3 1.1 1.3 3.2.1 4.4zm-1.5-3.1L74 24.3c-.3-.3-.7-.3-.8-.3H67h-.2c-.2 0-.5 0-.8.3l-1.6 1.6c-.5.5-.5 1.2 0 1.7.2.2.5.3.8.3.3 0 .6-.1.8-.3l.2-.2 1.4-1.4c.1-.1.3-.1.3 0l1.2 1.5c.2.2.5.4.8.4h.1c.3 0 .6-.1.8-.4l1.3-1.6c.1-.1.2-.1.3 0l1.4 1.4.2.2c.2.2.5.3.8.3.3 0 .6-.1.8-.3.5-.4.5-1.1 0-1.6zM65 32c.6 0 1 .4 1 1v2.5c0 .3.2.5.5.5h7c.3 0 .5-.2.5-.5V33c0-.5.4-1 1-1 .5 0 1 .4 1 1v4c0 .5-.4 1-1 1H65c-.5 0-1-.4-1-1v-4c0-.6.4-1 1-1zM93 37h-6c-3.9 0-7-3.1-7-7s3.1-7 7-7h6c3.9 0 7 3.1 7 7s-3.1 7-7 7zm0-12h-6c-2.8 0-5 2.2-5 5s2.2 5 5 5h6c2.8 0 5-2.2 5-5s-2.2-5-5-5zm-6 8c-1.7 0-3-1.3-3-3s1.3-3 3-3 3 1.3 3 3-1.3 3-3 3zM117 28v9c0 .6-.4 1-1 1h-12c-.6 0-1-.4-1-1v-9h-2v-1c0-.6.4-1 1-1h4v-3c0-.6.4-1 1-1h6c.6 0 1 .4 1 1v3h4c.6 0 1 .4 1 1v1h-2zm-5-4h-4v2h4v-2zm3 4h-10v8h10v-8zm-7.5 2h1c.3 0 .5.2.5.5v3c0 .3-.2.5-.5.5h-1c-.3 0-.5-.2-.5-.5v-3c0-.3.2-.5.5-.5zm4 0h1c.3 0 .5.2.5.5v3c0 .3-.2.5-.5.5h-1c-.3 0-.5-.2-.5-.5v-3c0-.3.2-.5.5-.5z"/></symbol></svg>